<svg id="Groupe_10" data-name="Groupe 10" xmlns="http://www.w3.org/2000/svg" xmlns:xlink="http://www.w3.org/1999/xlink" width="117.453" height="94.68" viewBox="0 0 117.453 94.68">
  <defs>
    <clipPath id="clip-path">
      <rect id="Rectangle_15" data-name="Rectangle 15" width="117.453" height="94.68" fill="#fff"/>
    </clipPath>
  </defs>
  <path id="Tracé_3" data-name="Tracé 3" d="M3.683.457V32.981H7.539V21.006H17.994V17.2H7.539V4.313H20.762V.457Z" transform="translate(-1.639 -0.203)" fill="#fff"/>
  <path id="Tracé_4" data-name="Tracé 4" d="M42.921.5V33H60V29.166H46.754v-8.1H58.117V17.214H46.754V4.331H60V.5Z" transform="translate(-19.107 -0.222)" fill="#fff"/>
  <g id="Groupe_9" data-name="Groupe 9">
    <g id="Groupe_8" data-name="Groupe 8" clip-path="url(#clip-path)">
      <path id="Tracé_5" data-name="Tracé 5" d="M85.711,33l-.023-.023h-.045a.335.335,0,0,1-.159-.023c-.181-.023-.34-.068-.544-.113a10.718,10.718,0,0,1-6.418-4.287l3.153-2.132a6.275,6.275,0,0,0,2.812,2.313,7.494,7.494,0,0,0,1.134.386l.363.068a.17.17,0,0,0,.114.023h.045a6.876,6.876,0,0,0,5.1-1.36,5.1,5.1,0,0,0,1.837-3.629c.25-3.039-1.36-4.4-5.965-6.918l-.453-.272c-.136-.068-.363-.2-.7-.363l-.227-.114-.25-.136-.477-.25c-.385-.2-.748-.431-1.088-.635a12.565,12.565,0,0,1-2.178-1.724,7.9,7.9,0,0,1,.2-11.567,9.576,9.576,0,0,1,7.122-2.2,9.421,9.421,0,0,1,6.441,3.4L92.47,5.764a5.46,5.46,0,0,0-3.765-1.927c-3.379-.363-5.512,1.792-5.579,4.264-.023,2.336,1.52,3.606,4.581,5.216.317.159.59.295.794.408l.454.272.725.386.726.408,1.429.884a13.224,13.224,0,0,1,2.654,2.154,8.31,8.31,0,0,1,2.381,6.713c-.454,5.172-4.74,8.528-9.866,8.528A12.3,12.3,0,0,1,85.711,33" transform="translate(-34.956 0)" fill="#fff"/>
      <path id="Tracé_6" data-name="Tracé 6" d="M117.475,4.127V.293h16.942V4.127h-6.373V32.908h-3.855V4.127Z" transform="translate(-52.296 -0.131)" fill="#fff"/>
      <rect id="Rectangle_14" data-name="Rectangle 14" width="3.833" height="32.501" transform="translate(86.722 0.276)" fill="#fff"/>
      <path id="Tracé_7" data-name="Tracé 7" d="M174.6.5l7.53,21.66L189.475.5h3.947L182.285,33.181h-.2L170.651.5Z" transform="translate(-75.969 -0.222)" fill="#fff"/>
      <path id="Tracé_8" data-name="Tracé 8" d="M20.553,69.343,41.106,125.55H34.164l-3.1-8.394H10l-3.06,8.394H0L20,69.343ZM20.278,86.17l-8.315,24.593H28.79Z" transform="translate(0 -30.87)" fill="#fff"/>
      <path id="Tracé_9" data-name="Tracé 9" d="M95.767,69.273a20.715,20.715,0,0,1,14.983,5.883,18.933,18.933,0,0,1,6.158,14.356,20.74,20.74,0,0,1-20.749,20.671h-2.51v15.336H87.02V69.273ZM110.24,89.512c0-7.727-6.2-13.61-14.473-13.61H93.649v27.653H96.08a14.129,14.129,0,0,0,14.16-14.042" transform="translate(-38.739 -30.838)" fill="#fff"/>
      <path id="Tracé_10" data-name="Tracé 10" d="M164.407,69.273a20.715,20.715,0,0,1,14.983,5.883,18.933,18.933,0,0,1,6.158,14.356A20.74,20.74,0,0,1,164.8,110.183h-2.51v15.336H155.66V69.273ZM178.88,89.512c0-7.727-6.2-13.61-14.473-13.61h-2.118v27.653h2.431a14.129,14.129,0,0,0,14.16-14.042" transform="translate(-69.296 -30.838)" fill="#fff"/>
    </g>
  </g>
</svg>
