<svg id="Groupe_10" data-name="Groupe 10" xmlns="http://www.w3.org/2000/svg" xmlns:xlink="http://www.w3.org/1999/xlink" width="51.422" height="41.452" viewBox="0 0 51.422 41.452">
  <defs>
    <clipPath id="clip-path">
      <rect id="Rectangle_15" data-name="Rectangle 15" width="51.422" height="41.452"/>
    </clipPath>
  </defs>
  <path id="Tracé_3" data-name="Tracé 3" d="M3.683.457V14.7H5.371V9.454H9.948V7.785H5.371V2.145H11.16V.457Z" transform="translate(-2.788 -0.346)"/>
  <path id="Tracé_4" data-name="Tracé 4" d="M42.921.5V14.728H50.4V13.05H44.6V9.5h4.975V7.817H44.6V2.177h5.8V.5Z" transform="translate(-32.495 -0.377)"/>
  <g id="Groupe_9" data-name="Groupe 9">
    <g id="Groupe_8" data-name="Groupe 8" clip-path="url(#clip-path)">
      <path id="Tracé_5" data-name="Tracé 5" d="M81.67,14.449l-.01-.01h-.02a.147.147,0,0,1-.069-.01c-.079-.01-.149-.03-.238-.05a4.693,4.693,0,0,1-2.81-1.877l1.38-.933a2.747,2.747,0,0,0,1.231,1.013,3.281,3.281,0,0,0,.5.169l.159.03a.075.075,0,0,0,.05.01h.02a3.01,3.01,0,0,0,2.234-.6,2.234,2.234,0,0,0,.8-1.589c.109-1.33-.6-1.926-2.612-3.029l-.2-.119c-.06-.03-.159-.089-.308-.159l-.1-.05-.109-.06-.209-.109c-.169-.089-.327-.188-.476-.278a5.5,5.5,0,0,1-.953-.755A3.46,3.46,0,0,1,80.021.984,4.193,4.193,0,0,1,83.139.021a4.124,4.124,0,0,1,2.82,1.49l-1.33,1.013a2.391,2.391,0,0,0-1.648-.844,2.027,2.027,0,0,0-2.443,1.867c-.01,1.023.665,1.579,2.006,2.284.139.069.258.129.348.179l.2.119.317.169.318.179.625.387a5.79,5.79,0,0,1,1.162.943,3.638,3.638,0,0,1,1.043,2.939,4.134,4.134,0,0,1-4.319,3.734,5.383,5.383,0,0,1-.566-.03" transform="translate(-59.448 0)"/>
      <path id="Tracé_6" data-name="Tracé 6" d="M117.475,1.971V.293h7.417V1.971H122.1v12.6h-1.688V1.971Z" transform="translate(-88.939 -0.222)"/>
      <rect id="Rectangle_14" data-name="Rectangle 14" width="1.678" height="14.229" transform="translate(37.968 0.121)"/>
      <path id="Tracé_7" data-name="Tracé 7" d="M172.379.5l3.3,9.483L178.892.5h1.728l-4.876,14.309h-.089L170.651.5Z" transform="translate(-129.198 -0.377)"/>
      <path id="Tracé_8" data-name="Tracé 8" d="M9,69.343l9,24.608h-3.04L13.6,90.276H4.379L3.04,93.951H0L8.758,69.343Zm-.12,7.367L5.238,87.477H12.6Z" transform="translate(0 -52.499)"/>
      <path id="Tracé_9" data-name="Tracé 9" d="M90.849,69.273a9.069,9.069,0,0,1,6.56,2.576,8.289,8.289,0,0,1,2.7,6.285,9.08,9.08,0,0,1-9.084,9.05h-1.1V93.9h-2.9V69.273Zm6.337,8.861a6.023,6.023,0,0,0-6.337-5.959h-.927V84.282h1.064a6.186,6.186,0,0,0,6.2-6.148" transform="translate(-65.882 -52.446)"/>
      <path id="Tracé_10" data-name="Tracé 10" d="M159.489,69.273a9.069,9.069,0,0,1,6.56,2.576,8.289,8.289,0,0,1,2.7,6.285,9.08,9.08,0,0,1-9.084,9.05h-1.1V93.9h-2.9V69.273Zm6.337,8.861a6.023,6.023,0,0,0-6.337-5.959h-.927V84.282h1.064a6.186,6.186,0,0,0,6.2-6.148" transform="translate(-117.849 -52.446)"/>
    </g>
  </g>
</svg>
