<?xml version="1.0" standalone="no"?>
<!DOCTYPE svg PUBLIC "-//W3C//DTD SVG 20010904//EN"
 "http://www.w3.org/TR/2001/REC-SVG-20010904/DTD/svg10.dtd">
<svg version="1.0" xmlns="http://www.w3.org/2000/svg"
 width="118.000000pt" height="118.000000pt" viewBox="0 0 118.000000 118.000000"
 preserveAspectRatio="xMidYMid meet">
<metadata>
Created by potrace 1.14, written by Peter Selinger 2001-2017
</metadata>
<g transform="translate(0.000000,118.000000) scale(0.100000,-0.100000)"
fill="#000000" stroke="none">
<path d="M20 895 c0 -158 1 -165 20 -165 18 0 20 7 20 60 l0 60 48 0 c53 0 63
5 55 26 -3 9 -21 14 -54 14 l-49 0 0 65 0 65 65 0 c58 0 65 2 65 20 0 18 -7
20 -85 20 l-85 0 0 -165z"/>
<path d="M239 1028 c-1 -37 -1 -279 0 -291 1 -4 39 -7 86 -6 76 1 85 3 85 20
0 17 -8 19 -65 19 l-65 0 0 40 0 40 55 0 c48 0 55 2 55 20 0 18 -7 20 -55 20
l-55 0 0 65 0 65 65 0 c58 0 65 2 65 20 0 18 -7 20 -85 20 l-85 0 -1 -32z"/>
<path d="M471 1032 c-48 -47 -32 -94 49 -145 64 -40 77 -69 44 -101 -18 -19
-65 -21 -81 -5 -13 13 -43 5 -43 -10 0 -16 56 -41 90 -41 21 0 41 9 61 29 53
53 33 113 -55 165 -46 27 -59 46 -50 71 8 20 53 31 74 17 13 -8 21 -7 29 1 16
16 14 23 -14 35 -42 19 -74 14 -104 -16z"/>
<path d="M650 1039 c0 -15 7 -19 35 -19 l35 0 0 -146 c0 -133 1 -145 18 -142
15 3 17 19 20 146 l3 142 29 0 c24 0 30 4 30 20 0 19 -6 21 -85 19 -76 -1 -85
-4 -85 -20z"/>
<path d="M869 1033 c-3 -108 -1 -294 4 -299 3 -4 12 -4 19 -1 10 3 13 41 13
163 0 143 -2 159 -17 162 -14 3 -18 -4 -19 -25z"/>
<path d="M950 1051 c0 -5 16 -53 36 -107 20 -55 42 -120 50 -146 8 -26 18 -49
23 -52 10 -6 116 302 108 311 -18 17 -39 -16 -68 -106 -18 -56 -36 -97 -40
-93 -3 4 -18 43 -33 86 -15 44 -32 88 -37 98 -10 18 -39 25 -39 9z"/>
<path d="M485 666 c-2 -6 -3 -132 -2 -281 l2 -270 30 0 30 0 5 75 5 75 40 3
c96 8 176 91 183 191 6 85 -32 152 -111 192 -44 23 -176 34 -182 15z m155 -75
c118 -63 83 -236 -52 -256 l-38 -6 0 140 0 141 28 0 c15 0 43 -8 62 -19z"/>
<path d="M866 672 c-2 -4 -3 -131 -2 -282 l1 -275 30 0 30 0 5 75 5 75 38 3
c71 5 136 50 171 119 18 35 21 118 7 156 -15 38 -67 93 -106 111 -34 17 -172
30 -179 18z m172 -91 c63 -44 73 -142 20 -198 -30 -32 -45 -40 -90 -47 l-38
-6 0 141 0 142 40 -6 c21 -3 52 -14 68 -26z"/>
<path d="M191 649 c-15 -35 -179 -501 -183 -519 -2 -11 6 -15 29 -16 28 -1 33
3 47 41 l16 42 105 0 104 1 16 -42 c15 -38 19 -42 51 -42 18 0 34 1 34 3 0 6
-201 547 -205 551 -2 3 -9 -6 -14 -19z m59 -281 l38 -108 -84 0 -83 0 8 28 c5
15 22 67 40 117 17 49 31 92 32 95 1 6 4 -1 49 -132z"/>
</g>
</svg>
